<svg width="189" height="40" viewBox="0 0 189 40" fill="none" xmlns="http://www.w3.org/2000/svg">
<g clip-path="url(#clip0)">
<path d="M14.0169 21.8329L25.2193 39.3824C25.3517 39.5832 25.5339 39.7462 25.748 39.8556C25.9622 39.9649 26.2011 40.0169 26.4413 40.0064H30.5915C30.7787 40.0086 30.9645 39.9734 31.138 39.9028C31.3115 39.8322 31.4691 39.7278 31.6017 39.5955C31.7343 39.4632 31.8391 39.3058 31.91 39.1325C31.981 38.9592 32.0167 38.7735 32.0149 38.5862V1.42015C32.0121 1.12374 31.9176 0.835481 31.7444 0.594897C31.5713 0.354312 31.3279 0.173186 31.0478 0.0763587C30.7676 -0.0204685 30.4643 -0.028255 30.1796 0.0540671C29.8948 0.136389 29.6425 0.304788 29.4572 0.53617L14.0169 20.1267C13.8496 20.3797 13.7604 20.6764 13.7604 20.9798C13.7604 21.2831 13.8496 21.5798 14.0169 21.8329Z" fill="#99ABCE"/>
<path d="M1.42344 40.0003H8.81375C9.00101 40.0025 9.18682 39.9672 9.36029 39.8967C9.53376 39.8261 9.6914 39.7216 9.82398 39.5894C9.95655 39.4571 10.0614 39.2997 10.1323 39.1264C10.2033 38.9531 10.239 38.7674 10.2372 38.5801V29.1553C10.2327 28.8593 10.1369 28.5719 9.96313 28.3322C9.78932 28.0926 9.54585 27.9123 9.26589 27.8161C8.98593 27.7198 8.6831 27.7121 8.39865 27.7942C8.11419 27.8762 7.86195 28.044 7.67628 28.2746L0.285967 37.6994C0.128218 37.9126 0.0322996 38.1652 0.00875041 38.4294C-0.0147988 38.6936 0.0349324 38.9592 0.15248 39.197C0.270028 39.4348 0.450843 39.6355 0.675061 39.7773C0.899278 39.919 1.15822 39.9962 1.42344 40.0003V40.0003Z" fill="#99ABCE"/>
<path d="M133.422 18.8102C133.338 18.7068 133.245 18.6101 133.146 18.521L132.993 18.391L132.915 18.3227C132.563 18.0263 132.18 17.7671 131.774 17.5492C131.334 17.2854 130.868 17.0676 130.384 16.8992C129.888 16.7221 129.378 16.5873 128.859 16.4963C127.52 16.2581 126.144 16.3281 124.836 16.701C124.054 16.9221 123.303 17.2398 122.6 17.6467C121.909 18.0515 121.272 18.543 120.705 19.1092C120.14 19.6804 119.642 20.3138 119.22 20.9974C118.791 21.6859 118.463 22.4323 118.245 23.2138C117.784 24.8303 117.784 26.5437 118.245 28.1602C118.468 28.9388 118.796 29.6834 119.22 30.3734C119.642 31.057 120.14 31.6904 120.705 32.2616C121.275 32.8285 121.913 33.321 122.606 33.7273C123.311 34.1227 124.058 34.4388 124.833 34.6698C126.174 35.0701 127.592 35.1404 128.967 34.8745C129.495 34.7872 130.012 34.64 130.507 34.4358C130.982 34.242 131.441 34.0128 131.882 33.7501C132.319 33.4893 132.741 33.2017 133.143 32.8888C133.258 32.788 133.367 32.6795 133.468 32.5639L133.52 32.5054C133.616 32.3905 133.689 32.258 133.734 32.1154L133.754 31.9984C133.764 31.8112 133.72 31.625 133.627 31.4621L133.581 31.3906C133.546 31.3331 133.506 31.2787 133.461 31.2281L133.341 31.0656C133.1 30.7406 132.873 30.4157 132.629 30.1167C132.526 29.998 132.397 29.9046 132.252 29.8437C132.108 29.7949 131.951 29.7949 131.807 29.8437C131.6 29.9359 131.412 30.0647 131.251 30.2239L131.037 30.4059C130.825 30.5814 130.712 30.6952 130.416 30.9031C130.15 31.106 129.862 31.2793 129.558 31.4199C129.23 31.587 128.882 31.7094 128.521 31.7839C127.335 32.0407 126.099 31.9108 124.992 31.4134C124.28 31.0929 123.634 30.6446 123.084 30.0907C122.52 29.5244 122.069 28.856 121.755 28.1212C121.421 27.3755 121.248 26.5676 121.248 25.7504C121.248 24.9332 121.421 24.1253 121.755 23.3796C122.072 22.641 122.521 21.9669 123.081 21.3906C123.638 20.8332 124.285 20.3739 124.995 20.0322C126.023 19.5443 127.183 19.4073 128.297 19.6422C128.67 19.7276 129.035 19.8428 129.389 19.9867C129.727 20.13 130.053 20.2995 130.364 20.4937C131.014 20.8771 131.748 21.9756 132.46 21.1046L133.49 19.7202C133.539 19.6539 133.573 19.5785 133.591 19.4987C133.61 19.4189 133.612 19.3361 133.598 19.2554C133.58 19.0941 133.519 18.9404 133.422 18.8102V18.8102Z" fill="#99ABCE"/>
<path d="M70.0487 33.5427L58.778 7.89755C58.7024 7.70712 58.5717 7.54357 58.4027 7.42779C58.2336 7.31201 58.0339 7.24926 57.829 7.24757H56.0221C55.82 7.24676 55.6223 7.30594 55.454 7.4176C55.2856 7.52926 55.1542 7.68838 55.0763 7.8748L43.7829 33.5134C43.7053 33.6702 43.6704 33.8448 43.6818 34.0194C43.6932 34.194 43.7505 34.3625 43.8479 34.5079C43.94 34.6564 44.0688 34.7787 44.222 34.8629C44.3751 34.9472 44.5473 34.9906 44.7221 34.9889H46.3893C46.5925 34.993 46.792 34.9352 46.9615 34.8232C47.1311 34.7111 47.2625 34.5501 47.3383 34.3616L50.0487 28.034H63.7471L66.4413 34.3616C66.5171 34.5526 66.6483 34.7165 66.818 34.8323C66.9877 34.9481 67.1881 35.0106 67.3935 35.0116H69.0185C69.187 35.0223 69.3555 34.9908 69.5088 34.9198C69.662 34.8489 69.7951 34.7408 69.896 34.6054C70.0147 34.4584 70.0916 34.2821 70.1185 34.095C70.1454 33.908 70.1213 33.7171 70.0487 33.5427V33.5427ZM51.4917 24.7679L51.5372 24.6671L56.9678 12.0282L62.4147 24.7679H51.4917Z" fill="#99ABCE"/>
<path d="M173.243 22.8242C172.963 21.8318 172.524 20.8913 171.943 20.039V20.039C171.515 19.4655 171.022 18.9431 170.474 18.4823C169.955 18.0201 169.366 17.6428 168.729 17.3643C168.107 17.0538 167.454 16.8119 166.779 16.6428C165.273 16.2718 163.695 16.3021 162.203 16.7306C161.438 16.9433 160.705 17.2604 160.026 17.673C159.354 18.0914 158.734 18.5865 158.177 19.1485C157.63 19.71 157.165 20.3469 156.799 21.0399C156.409 21.7456 156.111 22.4981 155.912 23.2791C155.564 24.5228 155.495 25.8278 155.71 27.101C155.766 27.5986 155.862 28.0909 155.996 28.5733C156.276 29.5679 156.715 30.5106 157.296 31.3649C157.724 31.9375 158.217 32.4587 158.765 32.9184C159.286 33.3812 159.876 33.7595 160.513 34.0396C161.135 34.3506 161.789 34.5915 162.463 34.7579C164.761 35.3196 167.188 34.9492 169.213 33.7276C169.885 33.3102 170.505 32.8161 171.063 32.2554C171.594 31.7162 172.042 31.1006 172.392 30.429L172.421 30.364C172.487 30.2756 172.526 30.1707 172.535 30.061C172.545 29.9513 172.523 29.8413 172.473 29.7432C172.432 29.6687 172.373 29.6061 172.3 29.5616C172.228 29.5171 172.145 29.4924 172.06 29.4897H169.366C169.253 29.4871 169.14 29.5106 169.037 29.5585C168.934 29.6064 168.843 29.6774 168.771 29.766C168.432 30.1776 168.036 30.5387 167.595 30.8385C167.123 31.14 166.61 31.371 166.071 31.5242C164.875 31.8705 163.601 31.8342 162.428 31.4202C161.803 31.1933 161.215 30.8734 160.686 30.4712C160.171 30.0627 159.744 29.5556 159.428 28.9795C159.152 28.3568 158.957 27.7015 158.846 27.0295L158.83 26.9451H158.921L172.766 26.9158C173.334 26.9158 173.656 26.5648 173.656 25.9408C173.694 24.8862 173.554 23.8327 173.243 22.8242V22.8242ZM170.296 24.0494L159.093 24.1014L159.122 24.0071C159.309 23.3746 159.588 22.7732 159.951 22.2229C160.394 21.5696 160.956 21.0061 161.609 20.5622C162.084 20.2573 162.602 20.024 163.146 19.87C164.341 19.5236 165.615 19.56 166.789 19.974C167.414 20.2009 168.001 20.5208 168.531 20.9229C169.048 21.3337 169.477 21.8443 169.792 22.4244C170.066 22.9027 170.263 23.4216 170.374 23.9616L170.393 24.0494H170.296Z" fill="#99ABCE"/>
<path d="M89.9382 32.2392C90.496 31.6683 90.9856 31.0347 91.3974 30.351C91.8049 29.6482 92.1226 28.897 92.3431 28.1151C92.8015 26.4992 92.8015 24.7878 92.3431 23.1719C92.1226 22.39 91.8049 21.6388 91.3974 20.936C90.5816 19.5481 89.4249 18.3914 88.037 17.5756C87.342 17.173 86.6011 16.8555 85.8303 16.6298C83.842 16.0543 81.7156 16.1876 79.8147 17.0068C79.0146 17.3708 78.2679 17.842 77.595 18.4076L77.4748 18.5083V17.5073C77.4888 17.3833 77.4747 17.2577 77.4334 17.1398C77.3921 17.022 77.3247 16.9151 77.2363 16.8269C77.1478 16.7388 77.0406 16.6718 76.9227 16.6309C76.8047 16.59 76.679 16.5763 76.555 16.5908H75.1381C75.0128 16.5759 74.8858 16.589 74.7662 16.6293C74.6467 16.6697 74.5376 16.7361 74.447 16.8239C74.3564 16.9117 74.2865 17.0186 74.2425 17.1369C74.1984 17.2551 74.1813 17.3816 74.1923 17.5073V39.0803C74.1884 39.1997 74.2086 39.3186 74.2515 39.43C74.2945 39.5415 74.3595 39.6431 74.4426 39.7289C74.5257 39.8148 74.6252 39.883 74.7352 39.9295C74.8451 39.9761 74.9634 40.0001 75.0828 40H76.529C76.7834 40.0076 77.0307 39.9155 77.218 39.7433C77.3026 39.658 77.3689 39.5563 77.4131 39.4446C77.4572 39.3329 77.4782 39.2134 77.4748 39.0933V32.7884L77.595 32.8892C78.2584 33.4477 78.9968 33.9104 79.7887 34.2639C81.6885 35.0829 83.8139 35.2162 85.8011 34.6409C86.583 34.4204 87.3342 34.1026 88.037 33.6952C88.7311 33.2942 89.3701 32.8048 89.9382 32.2392V32.2392ZM85.6386 31.3357C84.9189 31.6706 84.1347 31.8441 83.3409 31.8441C82.5471 31.8441 81.7629 31.6706 81.0432 31.3357C80.3205 31.0104 79.6715 30.5416 79.1355 29.9578C78.585 29.3804 78.1445 28.7075 77.8355 27.9721C77.5235 27.2274 77.3628 26.4281 77.3628 25.6207C77.3628 24.8134 77.5235 24.0141 77.8355 23.2694C78.1492 22.5472 78.5895 21.8869 79.1355 21.3195C79.6819 20.7542 80.3288 20.2957 81.0432 19.9675C81.7626 19.6336 82.5461 19.4606 83.3392 19.4606C84.1323 19.4606 84.9159 19.6336 85.6353 19.9675C86.3392 20.2992 86.9768 20.7562 87.517 21.3162C88.054 21.8855 88.4853 22.5458 88.791 23.2662C89.1047 24.0098 89.2663 24.8088 89.2663 25.6159C89.2663 26.423 89.1047 27.2219 88.791 27.9656C88.4792 28.6971 88.0475 29.3715 87.5138 29.961C86.9838 30.5365 86.3469 31.0034 85.6386 31.3357V31.3357Z" fill="#99ABCE"/>
<path d="M98.8658 16.6168H97.4489C97.3221 16.6014 97.1935 16.6148 97.0727 16.656C96.9518 16.6972 96.8418 16.7652 96.7509 16.8549C96.66 16.9446 96.5905 17.0536 96.5476 17.1739C96.5047 17.2941 96.4895 17.4226 96.5032 17.5495V39.0932C96.5003 39.2132 96.5215 39.3326 96.5656 39.4443C96.6097 39.5559 96.6758 39.6576 96.7599 39.7432C96.8431 39.8261 96.942 39.8915 97.0508 39.9356C97.1597 39.9797 97.2762 40.0016 97.3936 40H98.8366C99.091 40.0076 99.3382 39.9154 99.5256 39.7432C99.6108 39.6584 99.6775 39.5568 99.7217 39.445C99.7659 39.3332 99.7865 39.2134 99.7823 39.0932V32.7884L99.9026 32.8891C100.567 33.4483 101.306 33.9111 102.1 34.2638C103.999 35.0831 106.125 35.2164 108.112 34.6408C108.894 34.4197 109.645 34.102 110.348 33.6951C111.041 33.2869 111.68 32.7922 112.249 32.2229C112.806 31.652 113.294 31.0184 113.705 30.3347C114.112 29.6318 114.43 28.8807 114.651 28.0988C115.112 26.4833 115.112 24.771 114.651 23.1556C114.431 22.3735 114.113 21.6222 113.705 20.9197C112.891 19.5313 111.735 18.3744 110.348 17.5593C109.651 17.1573 108.909 16.8398 108.138 16.6135C106.15 16.0383 104.023 16.1716 102.122 16.9905C101.322 17.3545 100.575 17.8257 99.9026 18.3912L99.7726 18.5245V17.5495C99.7889 17.4254 99.777 17.2992 99.7376 17.1804C99.6982 17.0616 99.6324 16.9532 99.5452 16.8635C99.4579 16.7737 99.3515 16.7049 99.2338 16.6622C99.1162 16.6194 98.9903 16.6039 98.8658 16.6168V16.6168ZM100.146 23.2921C100.461 22.5702 100.901 21.91 101.446 21.3422C101.99 20.7732 102.635 20.3103 103.347 19.9772C104.067 19.6433 104.85 19.4703 105.644 19.4703C106.437 19.4703 107.22 19.6433 107.94 19.9772C108.653 20.3078 109.299 20.766 109.847 21.3292C110.384 21.8985 110.816 22.5588 111.121 23.2791C111.436 24.0226 111.598 24.8216 111.598 25.6288C111.598 26.436 111.436 27.235 111.121 27.9785C110.813 28.7128 110.381 29.3888 109.844 29.9772C109.314 30.5522 108.677 31.0191 107.969 31.3519C107.248 31.686 106.464 31.859 105.67 31.859C104.875 31.859 104.091 31.686 103.37 31.3519C102.649 31.0254 102.001 30.5567 101.466 29.974C100.915 29.3971 100.474 28.7241 100.166 27.9883C99.8519 27.2457 99.6886 26.4483 99.6852 25.6421C99.6819 24.836 99.8386 24.0372 100.146 23.2921V23.2921Z" fill="#99ABCE"/>
<path d="M152.096 17.2831C152.109 17.157 152.093 17.0296 152.05 16.9105C152.006 16.7914 151.937 16.6837 151.846 16.5955C151.755 16.5072 151.645 16.4408 151.524 16.4012C151.404 16.3615 151.276 16.3497 151.15 16.3666H149.724C149.6 16.3521 149.474 16.3658 149.356 16.4067C149.238 16.4475 149.131 16.5145 149.042 16.6027C148.954 16.6908 148.887 16.7977 148.845 16.9156C148.804 17.0334 148.79 17.159 148.804 17.2831V27.6243C148.816 28.2302 148.684 28.8304 148.42 29.376C148.194 29.875 147.861 30.3187 147.446 30.676C147.04 31.0106 146.582 31.2753 146.09 31.4592C145.538 31.6637 144.951 31.7537 144.363 31.7235C143.775 31.6933 143.199 31.5437 142.671 31.2837C142.171 31.0246 141.737 30.6531 141.404 30.1982C141.072 29.7654 140.836 29.2668 140.712 28.7358C140.576 28.1957 140.504 27.6416 140.497 27.0848V17.5495C140.513 17.2377 140.439 16.9278 140.286 16.6558C140.17 16.537 140.029 16.4461 139.873 16.3898C139.717 16.3335 139.551 16.3133 139.386 16.3308H138.359C138.206 16.3257 138.053 16.3519 137.911 16.4078C137.768 16.4637 137.639 16.5481 137.53 16.6558C137.416 16.7828 137.328 16.9313 137.273 17.0926C137.217 17.2539 137.194 17.4247 137.205 17.595V27.1141C137.193 28.1538 137.349 29.1886 137.667 30.1787C137.966 31.1009 138.439 31.957 139.061 32.7007C139.682 33.4284 140.46 34.0062 141.336 34.3906C142.859 35.0116 144.532 35.171 146.146 34.8489C146.581 34.7439 147.007 34.5992 147.416 34.4166C147.798 34.2394 148.152 34.0073 148.466 33.7276L148.69 33.5196L148.814 33.3994V34.1241C148.811 34.2309 148.829 34.3372 148.868 34.4366C148.908 34.536 148.966 34.6265 149.041 34.7026C149.127 34.8093 149.237 34.8942 149.362 34.9507C149.486 35.0071 149.623 35.0335 149.759 35.0276H151.202C151.32 35.03 151.436 35.0088 151.545 34.9653C151.654 34.9217 151.753 34.8567 151.836 34.7741C151.927 34.6935 151.998 34.5928 152.043 34.4799C152.088 34.3671 152.106 34.2452 152.096 34.1241V17.2831Z" fill="#99ABCE"/>
<path d="M188.375 27.4034C188.074 26.7751 187.64 26.2204 187.101 25.7785C186.512 25.2982 185.855 24.9073 185.151 24.6183C184.356 24.2879 183.531 24.0333 182.688 23.8578C182.276 23.7646 181.872 23.6419 181.479 23.4905C181.123 23.3608 180.785 23.1884 180.471 22.9771C180.048 22.7214 179.719 22.3346 179.535 21.8753C179.428 21.5381 179.428 21.1759 179.535 20.8386C179.649 20.4584 180.13 19.4119 181.989 19.2949C183.767 19.1844 184.66 20.1171 184.969 20.5331C185.015 20.5916 185.45 21.1539 185.762 21.5081C185.818 21.5589 185.881 21.6026 185.947 21.6381C186.075 21.6875 186.213 21.7042 186.349 21.6866C186.484 21.669 186.613 21.6177 186.724 21.5373L187.81 20.7314C187.928 20.6609 188.025 20.5609 188.093 20.4413C188.161 20.3216 188.197 20.1864 188.196 20.0489V20.0164C188.149 19.8075 188.065 19.6085 187.949 19.4281C187.629 18.9685 187.281 18.528 186.909 18.1087C186.578 17.7185 186.19 17.38 185.759 17.1045C185.311 16.8271 184.825 16.6179 184.316 16.4837C182.866 16.1164 181.34 16.1751 179.922 16.6527C179.206 16.8667 178.542 17.2263 177.972 17.7089C177.427 18.1611 176.991 18.7297 176.695 19.3729C176.4 20.0166 176.243 20.7146 176.233 21.4223C176.223 22.1301 176.36 22.8322 176.636 23.484C176.903 24.0761 177.297 24.6021 177.79 25.0245C178.321 25.4795 178.905 25.869 179.529 26.1847C180.26 26.5283 181.022 26.8046 181.804 27.0102C182.034 27.0622 182.265 27.124 182.506 27.189C182.746 27.254 182.98 27.3157 183.217 27.3709C183.638 27.4725 184.045 27.623 184.43 27.8194C184.753 27.974 185.04 28.1955 185.271 28.4694C185.474 28.7674 185.579 29.1208 185.573 29.4809C185.566 29.8411 185.449 30.1905 185.236 30.4811C184.999 30.7838 184.708 31.0396 184.378 31.2351C184.039 31.4319 183.675 31.5806 183.295 31.6771C182.654 31.8218 181.987 31.8218 181.346 31.6771C181.009 31.59 180.682 31.468 180.371 31.3131C180.056 31.1556 179.762 30.9591 179.496 30.7281C179.254 30.4584 179.044 30.1618 178.869 29.8441C178.787 29.6549 178.664 29.4861 178.508 29.3501C178.385 29.247 178.233 29.1825 178.073 29.1646C177.913 29.1467 177.752 29.1762 177.608 29.2494L176.308 29.8636C176.198 29.91 176.098 29.9761 176.012 30.0586C175.942 30.129 175.885 30.2116 175.843 30.3024C175.793 30.4317 175.782 30.5729 175.811 30.7086C175.824 30.8451 175.858 30.9789 175.912 31.1051C176.137 31.6945 176.456 32.2433 176.857 32.7301C177.303 33.261 177.846 33.7022 178.456 34.03C179.026 34.3706 179.647 34.6175 180.296 34.7613C181.786 35.1142 183.342 35.0648 184.807 34.6183C185.58 34.4024 186.304 34.0357 186.935 33.5393C187.544 33.0795 188.034 32.4798 188.362 31.7908C188.684 31.1047 188.852 30.3564 188.854 29.5986C188.856 28.8407 188.693 28.0915 188.375 27.4034V27.4034Z" fill="#99ABCE"/>
</g>
<defs>
<clipPath id="clip0">
<rect width="188.853" height="40" fill="white"/>
</clipPath>
</defs>
</svg>
