<svg width="138" height="33" viewBox="0 0 138 33" fill="none" xmlns="http://www.w3.org/2000/svg">
<path d="M126.738 22.8729C120.596 22.8729 115.599 17.8761 115.599 11.7343V0.595703H137.876V11.7343C137.876 17.8754 132.879 22.8729 126.738 22.8729ZM117.624 2.6209V11.7343C117.624 16.7588 121.712 20.8477 126.738 20.8477C131.762 20.8477 135.851 16.7595 135.851 11.7343V2.6209H117.624V2.6209Z" fill="#99ABCE"/>
<path d="M131.801 7.34619H121.675V9.37139H123.059L122.358 14.9832H124.399L125.101 9.37139H128.375L129.077 14.9832H131.118L130.417 9.37139H131.801V7.34619Z" fill="#99ABCE"/>
<path d="M11.9494 3.94257C17.9244 3.94257 21.1114 6.7306 21.1114 10.7135C21.1114 13.9005 18.721 16.2902 15.5346 17.1671V17.2468C20.5139 18.4815 22.3062 21.389 22.3062 24.4565C22.3062 28.8377 19.1193 31.8255 13.1449 31.8255H0V31.029C2.39041 31.029 2.39041 31.029 2.39041 28.4394V7.32803C2.39041 4.73847 2.39041 4.73847 0 4.73847V3.94189H11.9494V3.94257ZM9.55963 17.0868C13.1449 17.0868 14.5382 14.6971 14.5382 10.9126C14.5382 7.5265 13.1442 4.73847 10.7545 4.73847H8.76305V17.0868H9.55963ZM8.76305 17.8834V31.029H11.5511C14.7374 31.029 15.7338 27.842 15.7338 24.2574C15.7338 20.6728 13.9415 17.8841 10.3562 17.8841H8.76305V17.8834Z" fill="#99ABCE"/>
<path d="M23.8967 22.0663C23.8967 15.2947 29.4735 11.5103 34.4521 11.5103C39.0331 11.5103 43.1753 13.5017 41.9804 20.2733H30.1904C30.1904 25.6509 33.2572 27.6423 36.245 27.6423C39.8303 27.6423 41.4235 25.6509 42.2201 24.2562H42.6183C41.8218 28.2391 39.0331 32.2227 34.0545 32.2227C27.482 32.2233 23.8967 27.4439 23.8967 22.0663ZM30.1904 19.4767H36.0459C36.723 16.7684 37.2806 12.3068 34.2536 12.3068C31.9827 12.3068 30.3497 14.4184 30.1904 19.4767Z" fill="#99ABCE"/>
<path d="M58.9475 17.0868C58.9475 15.2945 57.7526 14.6971 56.5578 14.6971C55.3231 14.6971 53.9689 15.2945 52.5749 16.4894V28.4387C52.5749 31.0283 52.5749 31.0283 54.9646 31.0283V31.8249H43.8112V31.0283C46.2009 31.0283 46.2009 31.0283 46.2009 28.4387V15.8919C46.2009 13.9005 46.2009 13.9005 44.2094 13.9005V13.303L52.3751 11.5107H52.6937L52.5742 15.6928H52.6539C54.1674 13.1039 57.0357 11.5107 59.9432 11.5107C62.6118 11.5107 65.3208 13.1039 65.3208 17.4858V28.4401C65.3208 31.0296 65.3208 31.0296 67.7105 31.0296V31.8262H57.3543V31.0296C58.9475 31.0296 58.9475 31.0296 58.9475 28.4401V17.0868Z" fill="#99ABCE"/>
<path d="M80.8528 27.643C84.4381 27.643 86.0312 25.6516 86.8278 24.2569H87.2267C86.4295 28.2398 83.6415 32.2233 78.6622 32.2233C72.0897 32.2233 68.5051 27.4439 68.5051 22.0663C68.5051 15.2947 74.0819 11.5103 79.0605 11.5103C84.0398 11.5103 86.6691 13.9405 86.6691 16.4895C86.6691 17.8829 86.0319 19.2776 83.6421 19.2776C81.6507 19.2776 81.2119 18.0429 81.2517 17.2065C81.4516 14.2983 81.2517 12.3068 78.862 12.3068C76.074 12.3068 74.7988 16.0116 74.7988 20.6318C74.7988 25.8507 77.8656 27.643 80.8528 27.643Z" fill="#99ABCE"/>
<path d="M103.556 17.0867C103.556 15.2944 102.361 14.697 101.166 14.697C99.9312 14.697 98.577 15.2944 97.183 16.4893V28.4387C97.183 31.0282 97.183 31.0282 99.5734 31.0282V31.8248H88.4199V31.0282C90.8103 31.0282 90.8103 31.0282 90.8103 28.4387V5.53567C90.8103 3.54355 90.8103 3.54355 88.8189 3.54355V2.94611L96.865 1.15381H97.1836V15.6927H97.2633C98.7768 13.1038 101.644 11.5107 104.553 11.5107C107.222 11.5107 109.93 13.1038 109.93 17.4857V28.44C109.93 31.0296 109.93 31.0296 112.321 31.0296V31.8262H101.963V31.0296C103.556 31.0296 103.556 31.0296 103.556 28.44V17.0867V17.0867Z" fill="#99ABCE"/>
</svg>
