<svg width="155" height="40" viewBox="0 0 155 40" fill="none" xmlns="http://www.w3.org/2000/svg">
<path d="M28.4923 39.7214C22.5001 38.5691 18.6867 34.3325 17.4435 28.5308C17.147 27.0868 17.1083 22.6776 17.3919 21.4657C18.6662 15.8641 22.0375 11.7245 27.6672 10.3009C30.1137 9.65053 33.3386 9.6852 35.7766 10.3524C38.8266 11.2064 41.2863 12.6492 43.1897 15.1871C45.3434 18.0586 46.155 21.384 46.155 24.9338C46.1421 29.1496 45.2525 31.9602 42.9577 35.0028C39.6871 39.2974 33.5903 40.6506 28.4923 39.7214ZM32.9144 33.6362C34.8498 33.3068 36.4232 31.9173 37.2463 30.1681C38.6516 27.1513 38.6387 22.5358 37.2076 19.6092C36.136 17.4247 34.2783 16.0827 31.883 16.0122C30.2174 15.9602 28.6193 16.3818 27.3836 17.5851C24.2267 20.742 24.4116 27.1078 26.3393 30.7354C27.6138 33.145 30.3423 34.1228 32.9144 33.6362Z" fill="#99ABCE"/>
<path d="M53.8259 39.3348C51.3856 38.2256 49.6107 36.5902 48.8236 33.9071C48.179 31.6896 48.179 31.7798 48.1275 20.8471L48.063 10.5718L52.0468 10.5976L56.0176 10.6362L56.095 19.9833C56.1723 30.1812 56.1208 29.5495 56.8943 31.3415C57.2166 32.0764 58.3512 33.0304 59.2278 33.3012C61.4067 33.9587 64.1656 33.1207 65.3904 31.4189C65.6225 31.0965 65.9577 30.1038 66.2929 28.7501C66.3831 28.3762 66.4605 25.0887 66.5121 19.4031L66.5894 10.6362H70.4572H74.3249L74.3636 24.9211L74.3894 39.193H70.6505H66.9117V37.3752V35.5702L66.3703 36.1891C64.2209 38.6238 61.7387 39.8472 58.5317 39.915C56.9499 39.9336 55.3227 39.9471 53.8259 39.3348Z" fill="#99ABCE"/>
<path d="M107.871 34.4099C105.618 30.6386 104.736 25.748 105.576 21.4015C105.969 19.2942 106.589 17.1362 107.794 15.3291C110.021 12.0891 113.771 9.46502 118.159 9.83693C121.109 10.0362 124.018 11.3066 125.895 13.666L125.933 6.83299L125.959 0H129.956H133.952V19.5965V39.193H130.149H126.346V37.5686C126.346 36.1375 126.32 35.957 126.152 36.0988C126.049 36.1891 125.959 36.3051 125.959 36.3696C125.959 36.5501 124.657 37.8264 123.896 38.3808C122.414 39.4509 120.493 39.9537 117.837 39.9408C113.885 39.9408 109.921 37.8715 107.871 34.4099ZM126.23 23.5932C125.911 20.6291 124.767 17.2 121.614 16.2058C120.163 15.7302 118.503 15.9274 117.154 16.5539C115.581 17.263 114.175 19.2613 113.569 21.5948C112.35 26.4712 114.406 34.6874 120.802 33.688C125.278 32.9238 126.627 27.463 126.23 23.5932Z" fill="#99ABCE"/>
<path d="M4.38343 27.5896V15.9864H2.19172H0V13.3435V10.7005H2.19172H4.38343V9.19209C4.39632 6.54913 4.7831 5.02783 5.82738 3.51941C7.02638 1.79182 8.5348 0.734643 10.5718 0.206053C11.2809 0.0255583 11.9384 -0.000226586 14.6974 0.0255583L17.985 0.0642356L18.0236 3.05528L18.0494 6.05922L16.0898 6.02054C14.1559 5.99476 14.1043 5.99476 13.5242 6.34286C12.6217 6.87145 12.3381 7.55474 12.3252 9.28233L12.3123 10.636L14.9294 10.6747L17.5337 10.7005V13.3435V15.9864H14.9681C12.7506 15.9864 12.3896 16.0122 12.3252 16.1927C12.2865 16.3087 12.2478 21.5302 12.2478 27.7959V39.1928H8.31562H4.38343V27.5896Z" fill="#99ABCE"/>
<path d="M77.4449 39.1029C77.3933 39.0642 77.3546 32.6438 77.3546 24.8567V10.7008H81.0934H84.8322V12.6089C84.8451 14.4654 84.8451 14.4912 85.0643 14.0916C86.7083 10.9986 90.5248 9.9857 93.728 10.0047C97.6506 10.0047 101.062 11.215 102.688 15.0585C103.578 17.1857 103.578 17.0697 103.617 28.7245L103.668 39.1931H99.723H95.7908V30.3103C95.7908 20.5765 95.7779 20.3315 95.0302 18.7586C94.1786 16.9303 92.7875 16.3091 90.8917 16.3091C88.7739 16.3091 87.0254 17.1119 86.0699 19.1454C85.1803 21.0148 85.0901 22.0849 85.0901 31.4319V39.1931H81.3126C79.224 39.1931 77.4835 39.1545 77.4449 39.1029Z" fill="#99ABCE"/>
<path d="M136.724 38.9094C136.686 38.7418 136.673 32.3472 136.686 24.6891L136.724 10.7652L140.437 10.7266L144.137 10.7008V13.1761L144.15 15.6644C145.789 12.5129 150.198 9.59306 153.858 9.99169L154.709 10.0819V13.7305V17.392L152.427 17.3791C149.322 17.3506 146.488 18.7326 145.298 21.8656C144.627 23.6319 144.627 23.6835 144.563 31.6897L144.511 39.1931H140.644H136.789L136.724 38.9094Z" fill="#99ABCE"/>
</svg>
