<svg width="137" height="40" viewBox="0 0 137 40" fill="none" xmlns="http://www.w3.org/2000/svg">
<path fill-rule="evenodd" clip-rule="evenodd" d="M135.041 10.9337C134.217 10.8403 132.869 10.8216 131.315 10.5786L131.334 10.5225C131.521 10.0926 131.708 9.68145 131.877 9.25157C132.102 8.65348 132.963 6.95265 132.382 6.33587C131.615 5.51349 129.199 5.15837 126.915 7.28908C125.998 8.13015 125.492 9.40109 125.062 10.5038C124.125 12.8588 123.339 15.3259 123.133 17.8491C122.965 19.8677 122.833 22.0545 123.227 24.073C123.339 24.6525 123.564 25.5309 124.032 25.9608C124.051 25.9608 125.867 28.4466 131.896 24.6338C133.244 23.7927 132.364 22.0171 131.971 22.1479C127.571 24.7646 128.263 21.4003 128.263 21.4003C128.263 21.4003 128.263 21.4003 128.245 21.419C128.357 20.6527 128.469 19.8677 128.6 19.1014C128.825 17.7931 129.106 16.5034 129.48 15.2325C131.727 15.8306 133.731 15.6624 134.611 15.1017C136.202 14.0924 138.374 11.2888 135.041 10.9337ZM29.9649 6.09289C30.9198 6.56015 32.9794 6.0742 33.5972 5.13968C34.2713 4.11171 35.1138 2.05577 34.1215 1.0278C34.084 0.971726 34.0279 0.934345 33.9717 0.896964C32.9045 0.0558965 30.4704 0.429705 29.347 0.990417C27.718 1.81279 29.0287 5.62563 29.9649 6.09289ZM20.7529 23.0825C20.9963 23.6245 21.4269 24.4282 21.9886 24.7272C22.0074 24.7272 23.8423 26.2598 27.6244 23.1198C27.7555 23.3628 27.9053 23.5684 28.0551 23.6805C28.3546 23.9235 28.6542 24.073 28.9538 24.1852C29.4032 24.4095 31.1819 24.9515 34.8517 21.7554C37.136 25.1945 42.5471 23.7927 46.2918 20.4097C46.4603 21.2882 46.7224 21.9423 47.0782 22.2601C48.8382 23.7927 50.8603 22.4844 50.879 22.4844C50.9539 22.447 50.8978 21.6246 50.8978 21.5498C50.9352 20.7462 50.9914 19.9425 51.085 19.1388C51.2348 17.9426 51.4033 16.7277 51.628 15.5128C52.302 13.513 54.3616 11.7187 54.9982 13.3448C55.691 15.139 53.8561 21.7741 53.8748 21.7741C53.8748 21.7741 53.4254 23.6245 57.8442 22.5965C61.6076 21.7181 62.1693 7.41991 58.4621 7.02741C55.3352 6.70968 53.3318 9.86835 52.4331 11.7374C52.639 10.9524 52.845 10.1674 52.9948 9.36371C53.1071 8.74693 53.6501 6.91527 52.9761 6.39194C52.0773 5.71908 49.6807 5.81254 47.8271 8.31705C46.7973 9.71883 46.142 13.4008 46.0671 16.653C45.3743 17.3258 44.6254 17.9426 43.839 18.3912C42.8279 18.9706 41.3675 19.4752 40.2066 19.0827C39.6824 18.8958 39.4202 18.6528 39.2143 18.1669C39.1956 18.0921 38.8773 17.0828 38.896 17.0828C41.33 16.5034 43.6705 15.4007 44.7752 13.1205C45.4492 11.7 45.7488 9.27026 44.6441 7.96193C43.9888 7.17694 42.5096 6.80313 41.4611 6.84051C37.0985 7.00872 32.3428 13.9055 33.953 19.6995C32.3053 20.9518 32.0245 19.9425 32.0057 19.2509C32.0806 18.3538 32.193 17.438 32.3053 16.5408C32.4176 15.7371 32.53 14.9521 32.6611 14.1671C32.867 12.9523 33.1853 11.7561 33.3538 10.5225C33.4474 9.88704 33.8968 8.03669 33.204 7.56943C32.2866 6.93396 29.8712 7.13955 28.1487 9.71883C26.9317 11.5318 26.4823 16.952 26.9317 20.5219C25.0593 21.4564 24.9657 19.2696 24.9657 19.2696L24.947 19.2883C24.8721 18.5033 24.7972 17.7183 24.741 16.9333C24.5912 14.6905 24.5912 12.485 24.9282 10.2422C25.1155 9.02728 25.4151 7.81241 25.5836 6.59753C25.6585 5.96206 26.0891 4.11171 25.3776 3.64445C24.4414 3.02767 22.0074 3.27064 20.3035 5.8873C19.6295 6.93396 19.4235 8.27967 19.255 9.43847C18.8993 11.943 18.7308 14.5223 19.124 17.0268C19.4984 19.064 19.8916 21.2321 20.7529 23.0825ZM39.7011 11.3075C40.7496 9.588 41.536 12.242 41.0117 13.1392C40.2253 14.4475 38.9896 14.3354 38.9896 14.3354C38.9896 14.3354 38.7649 12.8401 39.7011 11.3075ZM9.29411 19.2135C9.42517 19.1575 9.55624 19.1014 9.66858 19.0266C12.6831 21.961 11.7469 29.3064 18.0005 27.6803C19.2176 27.3626 20.2286 26.6336 20.5282 25.4188C20.5469 25.3253 20.6593 23.9983 20.3597 23.9983C17.158 24.0544 16.7273 20.5966 15.3044 18.9519C14.5367 18.0547 13.8814 17.3819 13.1511 16.9333C17.3265 13.8307 18.383 8.83804 17.6822 7.2517C17.2542 6.22642 14.3307 2.61648 13.3384 5.94337C12.8141 7.73765 12.3835 12.2981 9.03198 15.2325C9.03198 14.2606 9.06943 13.2887 9.18177 12.2981C9.31283 11.0645 9.57496 9.84966 9.6873 8.6161C9.74347 7.98062 10.0992 6.11158 9.369 5.66301C8.4141 5.08361 5.98004 5.40135 4.36982 8.07407C3.73322 9.13943 3.58343 10.4851 3.45237 11.6626C3.35875 12.6719 3.28386 13.6812 3.24641 14.7092C2.10428 14.9521 0.928793 16.1197 0.587672 16.6903C0.246552 17.261 -0.573186 18.4286 0.643842 19.7556C1.09321 20.2415 2.19789 20.6714 3.88301 20.6153C4.23876 22.204 4.68812 23.8114 5.39962 25.2319C5.66175 25.7552 6.12983 26.5402 6.69154 26.8205C8.8073 27.8298 10.4175 26.0729 10.4175 26.0729C10.4737 26.0168 10.1928 25.2505 10.1741 25.1758C10.0618 24.4095 9.91198 23.6245 9.78092 22.8208C9.59368 21.6433 9.42517 20.4284 9.29411 19.2135ZM110.57 19.9051C110.42 22.69 111.955 26.2785 116.842 25.6243C121.748 24.9889 122.141 20.3724 121.036 18.1669C119.931 15.9614 117.834 14.6157 118.377 13.7186C119.182 12.3729 120.268 14.8774 120.718 14.6718C120.718 14.6718 123.751 13.9802 123.077 11.9243C122.665 10.672 118.359 8.78431 115.625 10.3543C113.266 11.7 113.49 13.8868 115.194 17.0081C116.917 20.1481 116.992 22.0545 115.775 22.3348C114.539 22.6152 113.509 19.9425 113.94 18.5594C113.996 18.0547 110.719 17.1389 110.57 19.9051ZM83.7763 19.2509C84.9933 24.1104 90.5729 24.7459 93.7559 21.3256C94.898 20.1481 95.9653 17.9987 96.6206 15.7558C97.0887 15.8493 97.5755 15.924 98.0623 15.9801C97.7253 17.2884 97.6504 18.6528 97.95 20.0172C98.9985 24.9141 104.559 25.7365 107.873 22.4283C110.532 19.849 113.004 12.3916 110.869 9.66276C110.401 9.06466 109.409 8.72824 108.66 8.63479C107.611 8.48526 106.525 8.6161 106.376 9.81228C106.244 10.8589 106.469 11.8122 106.45 12.8214C106.432 14.354 106.188 15.8119 105.851 17.2884C105.608 18.4099 105.308 19.5874 104.765 20.5966C104.484 21.1387 103.941 21.7741 103.511 20.9704C102.968 19.9799 102.968 18.5781 103.099 17.494C103.211 16.6903 103.492 15.924 104.054 15.2886C104.316 14.9708 104.69 14.7652 104.953 14.4662C105.233 14.1298 105.327 13.6999 105.383 13.2887C105.496 12.5411 105.589 11.7374 105.364 10.9898C105.271 10.6533 105.065 10.2982 104.803 10.0366C103.923 9.17681 102.668 9.66276 101.826 10.2982C101.039 10.8963 100.403 11.6813 99.3729 11.9056C99.167 11.943 97.2384 12.1299 97.2384 11.8308C97.2572 10.4478 96.9763 9.25157 96.3397 8.46657C95.8529 7.86848 94.8606 7.58812 94.0929 7.51336C92.2393 7.30777 91.1908 8.76562 91.1346 10.3356C91.1159 10.9711 91.3031 11.6626 91.5652 12.242C91.6963 12.5411 91.8648 12.8027 92.0708 13.0644C92.052 13.1952 92.052 13.3261 92.0333 13.4569C91.921 14.8587 91.5652 16.2605 91.2469 17.6436C91.1533 18.0547 91.0597 18.4846 90.9099 18.8958C90.5542 19.8864 89.5244 21.3816 89.0937 19.55C88.5695 17.2884 89.0001 15.0269 89.8988 12.9336C90.161 12.3168 90.4231 11.7 90.5916 11.0645C90.7601 10.4851 90.8912 9.47585 90.292 9.02728C89.1686 8.18622 88.3261 8.65348 87.315 9.41978C84.6562 11.5318 82.8401 15.4755 83.7763 19.2509ZM127.439 31.7735C124.631 30.9137 102.874 26.2972 78.3464 25.6243C53.8748 24.559 26.6134 27.4373 14.1809 32.5959C9.74347 34.035 18.038 42.8195 27.8491 39.0814C32.7921 37.2685 46.3292 33.792 63.9293 32.465C81.4545 31.0633 103.043 31.7922 122.74 36.6891C128.507 38.1095 133.206 33.6986 127.439 31.7735ZM61.177 8.07407C61.5514 8.2236 62.057 8.35443 62.6748 8.46657C62.2817 10.4104 62.057 12.3729 62.1693 14.3354C62.2817 16.3539 62.4689 18.5407 63.1429 20.4845C63.3302 21.0452 63.6859 21.8863 64.2102 22.2414C66.1574 23.531 67.9923 21.9984 67.9923 21.9984C68.0672 21.9423 67.8987 21.1573 67.88 21.0639C67.8051 20.2602 67.7489 19.4565 67.7302 18.6528C67.6927 17.3819 67.7115 16.0923 67.7489 14.8026C67.8238 12.5971 68.0298 10.4478 68.5728 8.29836C69.2094 8.16753 69.8647 7.98062 70.52 7.75634C70.0519 9.83097 69.7336 11.943 69.8272 14.055C69.9021 16.1296 70.0706 18.3912 70.7072 20.391C70.8945 20.9704 71.2315 21.8489 71.7745 22.204C72.1115 22.4283 72.4485 22.5778 72.7668 22.6713C72.7855 22.6713 72.7855 22.69 72.8043 22.69C72.823 22.69 78.1405 24.1852 81.1924 21.4003C83.6265 19.5126 83.6826 12.4663 78.8894 11.9617C78.8894 11.943 84.3941 11.8122 84.8435 5.53218C85.3865 1.12125 77.9907 -1.68231 73.8341 1.2147C72.7106 1.83148 71.5311 2.31743 70.3702 2.69124C70.5762 1.90625 70.7821 0.803513 70.2953 0.411015C69.4153 -0.29922 66.9812 -0.299221 65.0153 2.13053C64.697 2.54172 64.3412 3.21457 64.0229 3.9435C62.731 4.05564 61.6638 4.09302 60.9523 4.11171C58.1438 4.22385 60.1284 7.66289 61.177 8.07407ZM77.5975 20.3537C77.0545 21.0078 76.2681 20.5779 76.2681 20.5779C75.8375 20.4845 75.4068 11.943 77.2979 13.1579C78.8707 14.1858 77.972 19.9051 77.5975 20.3537ZM79.3388 3.23326C80.8741 3.75659 78.7209 10.0366 77.8034 10.4291C77.3166 10.6347 76.68 10.5973 76.5864 10.1487C76.3056 8.93383 77.1107 5.71908 77.2417 5.15837C77.5226 3.81267 78.0094 2.80338 79.3388 3.23326Z" fill="#99ABCE"/>
</svg>
