<svg width="147" height="20" viewBox="0 0 147 20" fill="none" xmlns="http://www.w3.org/2000/svg">
<path d="M6.19672 18.6788C5.31147 18.6788 4.49115 18.5402 3.73574 18.2628C2.98032 17.9854 2.32525 17.5988 1.77049 17.1031C1.21573 16.6074 0.781969 16.0143 0.46918 15.3238C0.156392 14.6333 0 13.869 0 13.031C0 12.1811 0.162293 11.3992 0.486885 10.6851C0.811477 9.97098 1.25705 9.35426 1.82361 8.83491C2.39017 8.31557 3.06 7.91131 3.83311 7.62213C4.60623 7.33294 5.44721 7.18836 6.35606 7.18836C7.2059 7.18836 7.99967 7.33294 8.73738 7.62213C9.47508 7.91131 10.1154 8.31557 10.6584 8.83491C11.2013 9.35426 11.6292 9.96803 11.942 10.6762C12.2548 11.3844 12.4111 12.1516 12.4111 12.9779C12.4111 13.8041 12.2607 14.5654 11.9597 15.2618C11.6587 15.9582 11.2367 16.5602 10.6938 17.0677C10.1508 17.5752 9.49869 17.9707 8.73738 18.2539C7.97606 18.5372 7.12918 18.6788 6.19672 18.6788ZM2.1777 13.1195C2.1777 13.7569 2.27508 14.3765 2.46984 14.9785C2.66459 15.5805 2.93901 16.1175 3.29311 16.5897C3.64721 17.0618 4.07213 17.4395 4.56787 17.7228C5.06361 18.0061 5.61836 18.1477 6.23213 18.1477C7.5305 18.1477 8.52786 17.7169 9.22426 16.8552C9.92066 15.9936 10.2689 14.7366 10.2689 13.0841C10.2689 12.3287 10.1774 11.6264 9.99442 10.9772C9.81147 10.328 9.54885 9.76442 9.20656 9.28639C8.86426 8.80835 8.43935 8.4336 7.9318 8.16213C7.42426 7.89065 6.8459 7.75491 6.19672 7.75491C5.52393 7.75491 4.93672 7.90245 4.43508 8.19754C3.93344 8.49262 3.51443 8.88507 3.17803 9.37491C2.84164 9.86475 2.59082 10.4343 2.42557 11.0834C2.26033 11.7326 2.1777 12.4113 2.1777 13.1195ZM12.162 7.3477C12.7403 7.3477 13.2243 7.34475 13.6138 7.33885C14.0033 7.33295 14.2984 7.32409 14.499 7.31229L17.0485 7.17065C17.2256 7.15885 17.3584 7.15295 17.4469 7.15295H17.6682C18.8721 7.15295 19.8193 7.44212 20.5098 8.02049C21.2003 8.59885 21.5456 9.39556 21.5456 10.4106C21.5456 10.9064 21.4482 11.352 21.2534 11.7474C21.0587 12.1428 20.7961 12.4792 20.4656 12.7566C20.1351 13.0339 19.7603 13.2464 19.3413 13.3939C18.9223 13.5415 18.4826 13.6152 18.0223 13.6152C17.6682 13.6152 17.3554 13.5651 17.0839 13.4647C16.8125 13.3644 16.5705 13.1962 16.358 12.9602L16.4288 12.8362C16.5823 12.8952 16.7416 12.9336 16.9069 12.9513C17.0721 12.969 17.2315 12.9779 17.3849 12.9779C18.0223 12.9779 18.5505 12.7802 18.9695 12.3847C19.3885 11.9893 19.598 11.3608 19.598 10.4992C19.598 9.76737 19.3974 9.1477 18.9961 8.64016C18.5947 8.13262 17.9751 7.85524 17.137 7.80803C16.8538 7.79622 16.6 7.79622 16.3757 7.80803C16.1397 7.80803 15.9272 7.84934 15.7384 7.93196V17.1916C15.7384 17.3687 15.7767 17.5074 15.8534 17.6077C15.9302 17.708 16.0984 17.7877 16.358 17.8467L17.5089 18.0769V18.4841C17.0131 18.4605 16.5587 18.4428 16.1456 18.431C15.7325 18.4192 15.3784 18.4133 15.0833 18.4133C14.7646 18.4133 14.4075 18.4162 14.0121 18.4221C13.6167 18.428 13.118 18.4428 12.5161 18.4664V18.0592L13.5075 17.8821C13.6846 17.8467 13.8026 17.7818 13.8616 17.6874C13.9207 17.5929 13.9502 17.4336 13.9502 17.2093V9.04737C13.9502 8.59885 13.8115 8.29787 13.5341 8.14442C13.2567 7.99098 12.7993 7.87885 12.162 7.80803V7.3477ZM21.1016 18.0592L21.8452 17.9529C22.1875 17.9175 22.4148 17.8497 22.5269 17.7493C22.639 17.649 22.6951 17.41 22.6951 17.0323V8.99426C22.6951 8.81721 22.6862 8.66377 22.6685 8.53393C22.6508 8.40409 22.6125 8.29491 22.5534 8.20639C22.4944 8.11786 22.397 8.04705 22.2613 7.99393C22.1256 7.94082 21.9456 7.89655 21.7213 7.86114L21.1725 7.79032C21.1725 7.7195 21.1695 7.64573 21.1636 7.56901C21.1577 7.49229 21.1548 7.41852 21.1548 7.3477H21.6239C21.7479 7.3477 21.8511 7.34475 21.9338 7.33885C22.0164 7.33295 22.0931 7.32704 22.1639 7.32114C22.2348 7.31524 22.3174 7.31229 22.4118 7.31229L24.9613 7.18836C25.0911 7.17655 25.221 7.1677 25.3508 7.1618C25.4807 7.1559 25.6105 7.15295 25.7403 7.15295C26.3895 7.15295 26.9826 7.20016 27.5197 7.29458C28.0567 7.38901 28.517 7.54245 28.9007 7.75491C29.2843 7.96737 29.5823 8.25065 29.7947 8.60475C30.0072 8.95885 30.1134 9.40147 30.1134 9.93262C30.1134 10.629 29.9275 11.169 29.5557 11.5526C29.1839 11.9362 28.638 12.2992 27.918 12.6415L29.8302 15.9346C30.1016 16.4067 30.3377 16.7726 30.5384 17.0323C30.739 17.292 30.9367 17.4867 31.1315 17.6166C31.3262 17.7464 31.5357 17.832 31.76 17.8733C31.9843 17.9146 32.2498 17.9588 32.5567 18.0061V18.431C32.3088 18.4192 32.0403 18.4133 31.7511 18.4133H29.6974C29.5144 18.4133 29.3462 18.4162 29.1928 18.4221C29.0393 18.428 28.9331 18.431 28.8741 18.431L26.2538 13.5267C26.0295 13.1608 25.7344 12.9779 25.3685 12.9779H24.6426V16.9261C24.6426 17.2093 24.6987 17.4159 24.8108 17.5457C24.923 17.6756 25.1207 17.7759 25.4039 17.8467L26.2715 18.0592V18.4841C25.8466 18.4605 25.4039 18.4428 24.9436 18.431C24.4833 18.4192 24.0289 18.4133 23.5803 18.4133C23.1318 18.4133 22.6951 18.4192 22.2702 18.431C21.8452 18.4428 21.4557 18.4605 21.1016 18.4841V18.0592ZM24.6426 12.3759C25.8348 12.4231 26.6905 12.249 27.2098 11.8536C27.7292 11.4582 27.9889 10.9123 27.9889 10.2159C27.9889 9.47229 27.7793 8.89098 27.3603 8.47196C26.9413 8.05294 26.2715 7.84344 25.3508 7.84344C25.2564 7.84344 25.1413 7.84639 25.0056 7.85229C24.8698 7.85819 24.7489 7.86704 24.6426 7.87885V12.3759ZM35.3351 13.6329L33.9718 17.351C33.9128 17.5398 33.901 17.6785 33.9364 17.767C33.9718 17.8556 34.1488 17.9116 34.4675 17.9352L35.6538 18.0238V18.4487C35.5357 18.4369 35.2967 18.428 34.9367 18.4221C34.5767 18.4162 34.0898 18.4133 33.4761 18.4133C32.8623 18.4133 32.3754 18.4162 32.0154 18.4221C31.6554 18.428 31.4164 18.4369 31.2984 18.4487V18.0238L32.4138 17.9352C32.8033 17.8998 33.0747 17.6815 33.2282 17.2802L37.3003 6.72803H38.0262L41.939 17.1562C42.0216 17.3569 42.0984 17.4926 42.1692 17.5634C42.24 17.6343 42.3698 17.6992 42.5587 17.7582L43.5325 18.0592V18.4664C43.3082 18.4546 43.0043 18.4428 42.6207 18.431C42.237 18.4192 41.821 18.4133 41.3725 18.4133H40.1154C39.3364 18.4133 38.6813 18.431 38.1502 18.4664V18.0592L39.301 17.8821C39.4662 17.8585 39.5961 17.832 39.6905 17.8025C39.7849 17.7729 39.8469 17.7316 39.8764 17.6785C39.9059 17.6254 39.9147 17.5605 39.9029 17.4838C39.8911 17.407 39.8616 17.3097 39.8144 17.1916L38.5043 13.6329H35.3351ZM38.2564 12.9956L36.9816 9.18901L35.5829 12.9956H38.2564ZM52.1534 8.46311C52.1534 8.21524 52.1239 8.04704 52.0649 7.95852C52.0059 7.86999 51.9056 7.81393 51.7639 7.79032L50.8787 7.68409V7.29458C51.1029 7.31819 51.4305 7.3359 51.8613 7.3477C52.2921 7.3595 52.7613 7.3654 53.2688 7.3654C53.7764 7.3654 54.2456 7.3595 54.6764 7.3477C55.1072 7.3359 55.4288 7.31819 55.6413 7.29458V7.68409L54.4374 7.86114C54.2839 7.88475 54.1836 7.93786 54.1364 8.02049C54.0892 8.10311 54.0656 8.25655 54.0656 8.48082V17.1031C54.0656 17.3628 54.0921 17.5398 54.1452 17.6343C54.1983 17.7287 54.3311 17.7995 54.5436 17.8467L55.8538 18.0946V18.4841C55.5587 18.4605 55.1839 18.4428 54.7295 18.431C54.2751 18.4192 53.8059 18.4133 53.322 18.4133C52.8498 18.4133 52.3806 18.4192 51.9144 18.431C51.4482 18.4428 51.0616 18.4605 50.7547 18.4841V18.0946L51.7993 17.9175C51.941 17.8939 52.0354 17.8231 52.0826 17.7051C52.1298 17.587 52.1534 17.3864 52.1534 17.1031V13.1903H46.3285V17.1031C46.3285 17.3982 46.3521 17.6018 46.3993 17.7139C46.4465 17.8261 46.5469 17.8939 46.7003 17.9175L47.7449 18.0946V18.4841C47.438 18.4605 47.0515 18.4428 46.5852 18.431C46.119 18.4192 45.6439 18.4133 45.16 18.4133C44.6879 18.4133 44.2246 18.4192 43.7702 18.431C43.3157 18.4428 42.941 18.4605 42.6459 18.4841V18.0946L43.9561 17.8467C44.1449 17.8113 44.2688 17.7405 44.3279 17.6343C44.3869 17.528 44.4164 17.351 44.4164 17.1031V8.46311C44.4164 8.21524 44.3869 8.04704 44.3279 7.95852C44.2688 7.86999 44.1685 7.81393 44.0269 7.79032L43.1416 7.68409V7.29458C43.3659 7.31819 43.6964 7.3359 44.1331 7.3477C44.5698 7.3595 45.0538 7.3654 45.5849 7.3654C46.1161 7.3654 46.597 7.3595 47.0279 7.3477C47.4587 7.3359 47.7803 7.31819 47.9928 7.29458V7.68409L46.7003 7.86114C46.5469 7.88475 46.4465 7.94081 46.3993 8.02934C46.3521 8.11786 46.3285 8.26836 46.3285 8.48082V12.4998H52.1534V8.46311Z" fill="#99ABCE"/>
<path d="M6.19672 18.6788C5.31147 18.6788 4.49115 18.5402 3.73574 18.2628C2.98032 17.9854 2.32525 17.5988 1.77049 17.1031C1.21573 16.6074 0.781969 16.0143 0.46918 15.3238C0.156392 14.6333 0 13.869 0 13.031C0 12.1811 0.162293 11.3992 0.486885 10.6851C0.811477 9.97098 1.25705 9.35426 1.82361 8.83491C2.39017 8.31557 3.06 7.91131 3.83311 7.62213C4.60623 7.33294 5.44721 7.18836 6.35606 7.18836C7.2059 7.18836 7.99967 7.33294 8.73738 7.62213C9.47508 7.91131 10.1154 8.31557 10.6584 8.83491C11.2013 9.35426 11.6292 9.96803 11.942 10.6762C12.2548 11.3844 12.4111 12.1516 12.4111 12.9779C12.4111 13.8041 12.2607 14.5654 11.9597 15.2618C11.6587 15.9582 11.2367 16.5602 10.6938 17.0677C10.1508 17.5752 9.49869 17.9707 8.73738 18.2539C7.97606 18.5372 7.12918 18.6788 6.19672 18.6788ZM2.1777 13.1195C2.1777 13.7569 2.27508 14.3765 2.46984 14.9785C2.66459 15.5805 2.93901 16.1175 3.29311 16.5897C3.64721 17.0618 4.07213 17.4395 4.56787 17.7228C5.06361 18.0061 5.61836 18.1477 6.23213 18.1477C7.5305 18.1477 8.52786 17.7169 9.22426 16.8552C9.92066 15.9936 10.2689 14.7366 10.2689 13.0841C10.2689 12.3287 10.1774 11.6264 9.99442 10.9772C9.81147 10.328 9.54885 9.76442 9.20656 9.28639C8.86426 8.80835 8.43935 8.4336 7.9318 8.16213C7.42426 7.89065 6.8459 7.75491 6.19672 7.75491C5.52393 7.75491 4.93672 7.90245 4.43508 8.19754C3.93344 8.49262 3.51443 8.88507 3.17803 9.37491C2.84164 9.86475 2.59082 10.4343 2.42557 11.0834C2.26033 11.7326 2.1777 12.4113 2.1777 13.1195ZM12.162 7.3477C12.7403 7.3477 13.2243 7.34475 13.6138 7.33885C14.0033 7.33295 14.2984 7.32409 14.499 7.31229L17.0485 7.17065C17.2256 7.15885 17.3584 7.15295 17.4469 7.15295H17.6682C18.8721 7.15295 19.8193 7.44212 20.5098 8.02049C21.2003 8.59885 21.5456 9.39556 21.5456 10.4106C21.5456 10.9064 21.4482 11.352 21.2534 11.7474C21.0587 12.1428 20.7961 12.4792 20.4656 12.7566C20.1351 13.0339 19.7603 13.2464 19.3413 13.3939C18.9223 13.5415 18.4826 13.6152 18.0223 13.6152C17.6682 13.6152 17.3554 13.5651 17.0839 13.4647C16.8125 13.3644 16.5705 13.1962 16.358 12.9602L16.4288 12.8362C16.5823 12.8952 16.7416 12.9336 16.9069 12.9513C17.0721 12.969 17.2315 12.9779 17.3849 12.9779C18.0223 12.9779 18.5505 12.7802 18.9695 12.3847C19.3885 11.9893 19.598 11.3608 19.598 10.4992C19.598 9.76737 19.3974 9.1477 18.9961 8.64016C18.5947 8.13262 17.9751 7.85524 17.137 7.80803C16.8538 7.79622 16.6 7.79622 16.3757 7.80803C16.1397 7.80803 15.9272 7.84934 15.7384 7.93196V17.1916C15.7384 17.3687 15.7767 17.5074 15.8534 17.6077C15.9302 17.708 16.0984 17.7877 16.358 17.8467L17.5089 18.0769V18.4841C17.0131 18.4605 16.5587 18.4428 16.1456 18.431C15.7325 18.4192 15.3784 18.4133 15.0833 18.4133C14.7646 18.4133 14.4075 18.4162 14.0121 18.4221C13.6167 18.428 13.118 18.4428 12.5161 18.4664V18.0592L13.5075 17.8821C13.6846 17.8467 13.8026 17.7818 13.8616 17.6874C13.9207 17.5929 13.9502 17.4336 13.9502 17.2093V9.04737C13.9502 8.59885 13.8115 8.29787 13.5341 8.14442C13.2567 7.99098 12.7993 7.87885 12.162 7.80803V7.3477ZM21.1016 18.0592L21.8452 17.9529C22.1875 17.9175 22.4148 17.8497 22.5269 17.7493C22.639 17.649 22.6951 17.41 22.6951 17.0323V8.99426C22.6951 8.81721 22.6862 8.66377 22.6685 8.53393C22.6508 8.40409 22.6125 8.29491 22.5534 8.20639C22.4944 8.11786 22.397 8.04705 22.2613 7.99393C22.1256 7.94082 21.9456 7.89655 21.7213 7.86114L21.1725 7.79032C21.1725 7.7195 21.1695 7.64573 21.1636 7.56901C21.1577 7.49229 21.1548 7.41852 21.1548 7.3477H21.6239C21.7479 7.3477 21.8511 7.34475 21.9338 7.33885C22.0164 7.33295 22.0931 7.32704 22.1639 7.32114C22.2348 7.31524 22.3174 7.31229 22.4118 7.31229L24.9613 7.18836C25.0911 7.17655 25.221 7.1677 25.3508 7.1618C25.4807 7.1559 25.6105 7.15295 25.7403 7.15295C26.3895 7.15295 26.9826 7.20016 27.5197 7.29458C28.0567 7.38901 28.517 7.54245 28.9007 7.75491C29.2843 7.96737 29.5823 8.25065 29.7947 8.60475C30.0072 8.95885 30.1134 9.40147 30.1134 9.93262C30.1134 10.629 29.9275 11.169 29.5557 11.5526C29.1839 11.9362 28.638 12.2992 27.918 12.6415L29.8302 15.9346C30.1016 16.4067 30.3377 16.7726 30.5384 17.0323C30.739 17.292 30.9367 17.4867 31.1315 17.6166C31.3262 17.7464 31.5357 17.832 31.76 17.8733C31.9843 17.9146 32.2498 17.9588 32.5567 18.0061V18.431C32.3088 18.4192 32.0403 18.4133 31.7511 18.4133H29.6974C29.5144 18.4133 29.3462 18.4162 29.1928 18.4221C29.0393 18.428 28.9331 18.431 28.8741 18.431L26.2538 13.5267C26.0295 13.1608 25.7344 12.9779 25.3685 12.9779H24.6426V16.9261C24.6426 17.2093 24.6987 17.4159 24.8108 17.5457C24.923 17.6756 25.1207 17.7759 25.4039 17.8467L26.2715 18.0592V18.4841C25.8466 18.4605 25.4039 18.4428 24.9436 18.431C24.4833 18.4192 24.0289 18.4133 23.5803 18.4133C23.1318 18.4133 22.6951 18.4192 22.2702 18.431C21.8452 18.4428 21.4557 18.4605 21.1016 18.4841V18.0592ZM24.6426 12.3759C25.8348 12.4231 26.6905 12.249 27.2098 11.8536C27.7292 11.4582 27.9889 10.9123 27.9889 10.2159C27.9889 9.47229 27.7793 8.89098 27.3603 8.47196C26.9413 8.05294 26.2715 7.84344 25.3508 7.84344C25.2564 7.84344 25.1413 7.84639 25.0056 7.85229C24.8698 7.85819 24.7489 7.86704 24.6426 7.87885V12.3759ZM35.3351 13.6329L33.9718 17.351C33.9128 17.5398 33.901 17.6785 33.9364 17.767C33.9718 17.8556 34.1488 17.9116 34.4675 17.9352L35.6538 18.0238V18.4487C35.5357 18.4369 35.2967 18.428 34.9367 18.4221C34.5767 18.4162 34.0898 18.4133 33.4761 18.4133C32.8623 18.4133 32.3754 18.4162 32.0154 18.4221C31.6554 18.428 31.4164 18.4369 31.2984 18.4487V18.0238L32.4138 17.9352C32.8033 17.8998 33.0747 17.6815 33.2282 17.2802L37.3003 6.72803H38.0262L41.939 17.1562C42.0216 17.3569 42.0984 17.4926 42.1692 17.5634C42.24 17.6343 42.3698 17.6992 42.5587 17.7582L43.5325 18.0592V18.4664C43.3082 18.4546 43.0043 18.4428 42.6207 18.431C42.237 18.4192 41.821 18.4133 41.3725 18.4133H40.1154C39.3364 18.4133 38.6813 18.431 38.1502 18.4664V18.0592L39.301 17.8821C39.4662 17.8585 39.5961 17.832 39.6905 17.8025C39.7849 17.7729 39.8469 17.7316 39.8764 17.6785C39.9059 17.6254 39.9147 17.5605 39.9029 17.4838C39.8911 17.407 39.8616 17.3097 39.8144 17.1916L38.5043 13.6329H35.3351ZM38.2564 12.9956L36.9816 9.18901L35.5829 12.9956H38.2564ZM52.1534 8.46311C52.1534 8.21524 52.1239 8.04704 52.0649 7.95852C52.0059 7.86999 51.9056 7.81393 51.7639 7.79032L50.8787 7.68409V7.29458C51.1029 7.31819 51.4305 7.3359 51.8613 7.3477C52.2921 7.3595 52.7613 7.3654 53.2688 7.3654C53.7764 7.3654 54.2456 7.3595 54.6764 7.3477C55.1072 7.3359 55.4288 7.31819 55.6413 7.29458V7.68409L54.4374 7.86114C54.2839 7.88475 54.1836 7.93786 54.1364 8.02049C54.0892 8.10311 54.0656 8.25655 54.0656 8.48082V17.1031C54.0656 17.3628 54.0921 17.5398 54.1452 17.6343C54.1983 17.7287 54.3311 17.7995 54.5436 17.8467L55.8538 18.0946V18.4841C55.5587 18.4605 55.1839 18.4428 54.7295 18.431C54.2751 18.4192 53.8059 18.4133 53.322 18.4133C52.8498 18.4133 52.3806 18.4192 51.9144 18.431C51.4482 18.4428 51.0616 18.4605 50.7547 18.4841V18.0946L51.7993 17.9175C51.941 17.8939 52.0354 17.8231 52.0826 17.7051C52.1298 17.587 52.1534 17.3864 52.1534 17.1031V13.1903H46.3285V17.1031C46.3285 17.3982 46.3521 17.6018 46.3993 17.7139C46.4465 17.8261 46.5469 17.8939 46.7003 17.9175L47.7449 18.0946V18.4841C47.438 18.4605 47.0515 18.4428 46.5852 18.431C46.119 18.4192 45.6439 18.4133 45.16 18.4133C44.6879 18.4133 44.2246 18.4192 43.7702 18.431C43.3157 18.4428 42.941 18.4605 42.6459 18.4841V18.0946L43.9561 17.8467C44.1449 17.8113 44.2688 17.7405 44.3279 17.6343C44.3869 17.528 44.4164 17.351 44.4164 17.1031V8.46311C44.4164 8.21524 44.3869 8.04704 44.3279 7.95852C44.2688 7.86999 44.1685 7.81393 44.0269 7.79032L43.1416 7.68409V7.29458C43.3659 7.31819 43.6964 7.3359 44.1331 7.3477C44.5698 7.3595 45.0538 7.3654 45.5849 7.3654C46.1161 7.3654 46.597 7.3595 47.0279 7.3477C47.4587 7.3359 47.7803 7.31819 47.9928 7.29458V7.68409L46.7003 7.86114C46.5469 7.88475 46.4465 7.94081 46.3993 8.02934C46.3521 8.11786 46.3285 8.26836 46.3285 8.48082V12.4998H52.1534V8.46311Z" fill="#99ABCE"/>
<path d="M82.5602 8.83491C82.5602 8.55163 82.5248 8.35393 82.4539 8.2418C82.3831 8.12967 82.2474 8.05 82.0467 8.00278L80.949 7.79032V7.33C81.3385 7.3418 81.7959 7.33885 82.3212 7.32114C82.8464 7.30344 83.3893 7.28278 83.95 7.25918C84.5107 7.23557 85.0595 7.21491 85.5966 7.19721C86.1336 7.1795 86.6028 7.17065 87.0041 7.17065C87.913 7.18245 88.7598 7.30639 89.5448 7.54245C90.3297 7.77852 91.0113 8.12967 91.5897 8.5959C92.168 9.06213 92.6225 9.64048 92.953 10.331C93.2835 11.0215 93.4487 11.8152 93.4487 12.7123C93.4487 13.5621 93.2864 14.3411 92.9618 15.0493C92.6372 15.7575 92.1946 16.3625 91.6339 16.8641C91.0733 17.3657 90.4212 17.7552 89.6775 18.0326C88.9339 18.31 88.1372 18.4428 87.2874 18.431L84.4192 18.3602H80.772V17.9175L82.0467 17.6166C82.2356 17.5811 82.3684 17.5044 82.4451 17.3864C82.5218 17.2684 82.5602 17.0441 82.5602 16.7136V8.83491ZM84.4192 16.2887C84.4192 16.4775 84.4664 16.6634 84.5608 16.8464C84.6553 17.0293 84.7998 17.1946 84.9946 17.3421C85.1894 17.4897 85.4343 17.6077 85.7293 17.6962C86.0244 17.7847 86.3726 17.829 86.7739 17.829C87.4821 17.829 88.1136 17.708 88.6684 17.4661C89.2231 17.2241 89.6923 16.8788 90.0759 16.4303C90.4595 15.9818 90.7487 15.4389 90.9435 14.8015C91.1382 14.1641 91.2356 13.4441 91.2356 12.6415C91.2356 11.8861 91.1176 11.2074 90.8815 10.6054C90.6454 10.0034 90.3031 9.4959 89.8546 9.08278C89.4061 8.66967 88.8602 8.35098 88.2169 8.12672C87.5736 7.90245 86.8448 7.79032 86.0303 7.79032C85.5818 7.79032 85.2631 7.80803 85.0743 7.84344C84.8854 7.87885 84.7497 7.92606 84.6671 7.98508C84.5018 8.11491 84.4192 8.39819 84.4192 8.83491V16.2887ZM104.123 15.2264C103.994 15.7693 103.893 16.3359 103.822 16.9261C103.752 17.5162 103.704 18.0297 103.681 18.4664C102.937 18.4428 102.158 18.428 101.344 18.4221C100.529 18.4162 99.6205 18.4133 98.6172 18.4133C97.6139 18.4133 96.652 18.4162 95.7313 18.4221C94.8107 18.428 93.9785 18.4428 93.2349 18.4664V18.0592L94.4743 17.9707C94.6749 17.947 94.8136 17.9028 94.8903 17.8379C94.9671 17.7729 95.0054 17.6107 95.0054 17.351V8.65786C95.0054 8.37458 94.973 8.17098 94.908 8.04704C94.8431 7.92311 94.728 7.85524 94.5628 7.84344L93.3057 7.7195V7.29458C93.7897 7.31819 94.4625 7.33295 95.3241 7.33885C96.1857 7.34475 97.1772 7.3477 98.2985 7.3477C99.4198 7.3477 100.355 7.34475 101.105 7.33885C101.854 7.33295 102.465 7.31819 102.937 7.29458C102.914 7.47164 102.899 7.67819 102.893 7.91426C102.887 8.15032 102.884 8.38934 102.884 8.63131C102.884 8.87328 102.887 9.11229 102.893 9.34836C102.899 9.58442 102.908 9.79688 102.92 9.98573H102.689C102.536 9.5254 102.397 9.16246 102.273 8.89688C102.149 8.63131 102.025 8.4277 101.901 8.28606C101.778 8.14442 101.645 8.05295 101.503 8.01164C101.361 7.97032 101.196 7.94377 101.007 7.93196H97.4487C97.248 7.93196 97.1123 7.98803 97.0415 8.10016C96.9707 8.21229 96.9353 8.40409 96.9353 8.67557V12.4821H100.175C100.411 12.4821 100.6 12.4467 100.742 12.3759C100.883 12.3051 100.984 12.1634 101.043 11.951L101.379 10.747H101.822C101.751 12.1516 101.751 13.568 101.822 14.9962H101.521L101.025 13.7215C100.907 13.4146 100.724 13.2228 100.476 13.1461C100.228 13.0693 99.8979 13.031 99.4848 13.031H96.9353V17.0854C96.9353 17.3451 96.9825 17.5251 97.0769 17.6254C97.1713 17.7257 97.372 17.7759 97.6789 17.7759H101.06C101.32 17.7759 101.562 17.7464 101.786 17.6874C102.011 17.6284 102.229 17.5074 102.441 17.3244C102.654 17.1415 102.869 16.8818 103.088 16.5454C103.306 16.209 103.533 15.7693 103.769 15.2264H104.123ZM114.568 15.2264C114.438 15.7693 114.338 16.3359 114.267 16.9261C114.196 17.5162 114.149 18.0297 114.125 18.4664C113.382 18.4428 112.603 18.428 111.788 18.4221C110.974 18.4162 110.065 18.4133 109.062 18.4133C108.059 18.4133 107.097 18.4162 106.176 18.4221C105.255 18.428 104.423 18.4428 103.68 18.4664V18.0592L104.919 17.9707C105.12 17.947 105.258 17.9028 105.335 17.8379C105.412 17.7729 105.45 17.6107 105.45 17.351V8.65786C105.45 8.37458 105.418 8.17098 105.353 8.04704C105.288 7.92311 105.173 7.85524 105.007 7.84344L103.75 7.7195V7.29458C104.234 7.31819 104.907 7.33295 105.769 7.33885C106.63 7.34475 107.622 7.3477 108.743 7.3477C109.864 7.3477 110.8 7.34475 111.549 7.33885C112.299 7.33295 112.91 7.31819 113.382 7.29458C113.358 7.47164 113.343 7.67819 113.338 7.91426C113.332 8.15032 113.329 8.38934 113.329 8.63131C113.329 8.87328 113.332 9.11229 113.338 9.34836C113.343 9.58442 113.352 9.79688 113.364 9.98573H113.134C112.981 9.5254 112.842 9.16246 112.718 8.89688C112.594 8.63131 112.47 8.4277 112.346 8.28606C112.222 8.14442 112.089 8.05295 111.948 8.01164C111.806 7.97032 111.641 7.94377 111.452 7.93196H107.893C107.693 7.93196 107.557 7.98803 107.486 8.10016C107.415 8.21229 107.38 8.40409 107.38 8.67557V12.4821H110.62C110.856 12.4821 111.045 12.4467 111.186 12.3759C111.328 12.3051 111.428 12.1634 111.487 11.951L111.824 10.747H112.266C112.196 12.1516 112.196 13.568 112.266 14.9962H111.965L111.47 13.7215C111.352 13.4146 111.169 13.2228 110.921 13.1461C110.673 13.0693 110.342 13.031 109.929 13.031H107.38V17.0854C107.38 17.3451 107.427 17.5251 107.521 17.6254C107.616 17.7257 107.817 17.7759 108.123 17.7759H111.505C111.765 17.7759 112.007 17.7464 112.231 17.6874C112.455 17.6284 112.674 17.5074 112.886 17.3244C113.099 17.1415 113.314 16.8818 113.532 16.5454C113.751 16.209 113.978 15.7693 114.214 15.2264H114.568ZM114.089 7.3477C114.667 7.3477 115.151 7.34475 115.54 7.33885C115.93 7.33295 116.225 7.32409 116.426 7.31229L118.975 7.17065C119.152 7.15885 119.285 7.15295 119.374 7.15295H119.595C120.799 7.15295 121.746 7.44212 122.437 8.02049C123.127 8.59885 123.472 9.39556 123.472 10.4106C123.472 10.9064 123.375 11.352 123.18 11.7474C122.985 12.1428 122.723 12.4792 122.392 12.7566C122.062 13.0339 121.687 13.2464 121.268 13.3939C120.849 13.5415 120.409 13.6152 119.949 13.6152C119.595 13.6152 119.282 13.5651 119.011 13.4647C118.739 13.3644 118.497 13.1962 118.285 12.9602L118.356 12.8362C118.509 12.8952 118.668 12.9336 118.834 12.9513C118.999 12.969 119.158 12.9779 119.312 12.9779C119.949 12.9779 120.477 12.7802 120.896 12.3847C121.315 11.9893 121.525 11.3608 121.525 10.4992C121.525 9.76737 121.324 9.1477 120.923 8.64016C120.521 8.13262 119.902 7.85524 119.064 7.80803C118.78 7.79622 118.527 7.79622 118.302 7.80803C118.066 7.80803 117.854 7.84934 117.665 7.93196V17.1916C117.665 17.3687 117.703 17.5074 117.78 17.6077C117.857 17.708 118.025 17.7877 118.285 17.8467L119.436 18.0769V18.4841C118.94 18.4605 118.485 18.4428 118.072 18.431C117.659 18.4192 117.305 18.4133 117.01 18.4133C116.691 18.4133 116.334 18.4162 115.939 18.4221C115.543 18.428 115.045 18.4428 114.443 18.4664V18.0592L115.434 17.8821C115.611 17.8467 115.729 17.7818 115.788 17.6874C115.847 17.5929 115.877 17.4336 115.877 17.2093V9.04737C115.877 8.59885 115.738 8.29787 115.461 8.14442C115.183 7.99098 114.726 7.87885 114.089 7.80803V7.3477ZM126.569 13.6329L125.206 17.351C125.147 17.5398 125.135 17.6785 125.171 17.767C125.206 17.8556 125.383 17.9116 125.702 17.9352L126.888 18.0238V18.4487C126.77 18.4369 126.531 18.428 126.171 18.4221C125.811 18.4162 125.324 18.4133 124.71 18.4133C124.097 18.4133 123.61 18.4162 123.25 18.4221C122.89 18.428 122.651 18.4369 122.533 18.4487V18.0238L123.648 17.9352C124.038 17.8998 124.309 17.6815 124.462 17.2802L128.535 6.72803H129.261L133.173 17.1562C133.256 17.3569 133.333 17.4926 133.403 17.5634C133.474 17.6343 133.604 17.6992 133.793 17.7582L134.767 18.0592V18.4664C134.542 18.4546 134.239 18.4428 133.855 18.431C133.471 18.4192 133.055 18.4133 132.607 18.4133H131.35C130.571 18.4133 129.916 18.431 129.384 18.4664V18.0592L130.535 17.8821C130.701 17.8585 130.83 17.832 130.925 17.8025C131.019 17.7729 131.081 17.7316 131.111 17.6785C131.14 17.6254 131.149 17.5605 131.137 17.4838C131.125 17.407 131.096 17.3097 131.049 17.1916L129.739 13.6329H126.569ZM129.491 12.9956L128.216 9.18901L126.817 12.9956H129.491ZM138.66 18.4841C138.436 18.4605 138.135 18.4428 137.758 18.431C137.38 18.4192 136.92 18.4133 136.377 18.4133C135.834 18.4133 135.356 18.4192 134.942 18.431C134.529 18.4428 134.211 18.4605 133.986 18.4841V18.0415L134.942 17.8821C135.108 17.8585 135.223 17.8084 135.288 17.7316C135.353 17.6549 135.385 17.5103 135.385 17.2979V8.37458C135.385 8.17393 135.359 8.04705 135.305 7.99393C135.252 7.94082 135.131 7.89655 134.942 7.86114L133.986 7.7018V7.29458C134.022 7.30639 134.119 7.31524 134.279 7.32114C134.438 7.32704 134.633 7.33295 134.863 7.33885C135.093 7.34475 135.335 7.3477 135.589 7.3477H136.855C137.067 7.3477 137.285 7.34475 137.51 7.33885C137.734 7.33295 137.949 7.32704 138.156 7.32114C138.362 7.31524 138.531 7.30639 138.66 7.29458V7.7018L137.74 7.86114C137.563 7.88475 137.445 7.92606 137.386 7.98508C137.327 8.04409 137.297 8.17393 137.297 8.37458V17.2979C137.297 17.4867 137.33 17.6195 137.395 17.6962C137.46 17.7729 137.575 17.8231 137.74 17.8467L138.66 18.0415V18.4841ZM146.752 18.4841C146.433 18.4605 146.055 18.4428 145.619 18.431C145.182 18.4192 144.68 18.4133 144.114 18.4133H143.237C142.936 18.4133 142.641 18.4162 142.352 18.4221C142.063 18.428 141.794 18.4369 141.546 18.4487C141.299 18.4605 141.098 18.4723 140.944 18.4841V18.0592L142.201 17.8467C142.39 17.8113 142.479 17.7523 142.467 17.6697C142.455 17.587 142.349 17.4572 142.148 17.2802L138.572 14.1641C138.3 13.9398 138.044 13.7362 137.802 13.5533C137.56 13.3703 137.339 13.208 137.138 13.0664C137.409 12.9366 137.722 12.7477 138.076 12.4998C138.43 12.252 138.749 11.9982 139.032 11.7385L141.989 9.06508C142.296 8.7818 142.511 8.58114 142.635 8.46311C142.759 8.34508 142.821 8.23295 142.821 8.12672C142.821 8.02049 142.739 7.95557 142.573 7.93196L141.422 7.75491V7.29458C141.753 7.32999 142.473 7.3477 143.582 7.3477C144.68 7.3477 145.4 7.32999 145.742 7.29458V7.75491C145.471 7.77852 145.22 7.82573 144.99 7.89655C144.76 7.96737 144.515 8.0618 144.255 8.17983C143.996 8.29786 143.709 8.45721 143.397 8.65786C143.084 8.85852 142.75 9.11819 142.396 9.43688L139.28 12.2874L144.114 16.5188C144.432 16.7903 144.695 17.0087 144.901 17.1739C145.108 17.3392 145.259 17.4572 145.353 17.528C145.459 17.6107 145.568 17.6844 145.681 17.7493C145.793 17.8143 145.908 17.8585 146.026 17.8821L146.752 18.0238V18.4841Z" fill="#99ABCE"/>
<path d="M82.5602 8.83491C82.5602 8.55163 82.5248 8.35393 82.4539 8.2418C82.3831 8.12967 82.2474 8.05 82.0467 8.00278L80.949 7.79032V7.33C81.3385 7.3418 81.7959 7.33885 82.3212 7.32114C82.8464 7.30344 83.3893 7.28278 83.95 7.25918C84.5107 7.23557 85.0595 7.21491 85.5966 7.19721C86.1336 7.1795 86.6028 7.17065 87.0041 7.17065C87.913 7.18245 88.7598 7.30639 89.5448 7.54245C90.3297 7.77852 91.0113 8.12967 91.5897 8.5959C92.168 9.06213 92.6225 9.64048 92.953 10.331C93.2835 11.0215 93.4487 11.8152 93.4487 12.7123C93.4487 13.5621 93.2864 14.3411 92.9618 15.0493C92.6372 15.7575 92.1946 16.3625 91.6339 16.8641C91.0733 17.3657 90.4212 17.7552 89.6775 18.0326C88.9339 18.31 88.1372 18.4428 87.2874 18.431L84.4192 18.3602H80.772V17.9175L82.0467 17.6166C82.2356 17.5811 82.3684 17.5044 82.4451 17.3864C82.5218 17.2684 82.5602 17.0441 82.5602 16.7136V8.83491ZM84.4192 16.2887C84.4192 16.4775 84.4664 16.6634 84.5608 16.8464C84.6553 17.0293 84.7998 17.1946 84.9946 17.3421C85.1894 17.4897 85.4343 17.6077 85.7293 17.6962C86.0244 17.7847 86.3726 17.829 86.7739 17.829C87.4821 17.829 88.1136 17.708 88.6684 17.4661C89.2231 17.2241 89.6923 16.8788 90.0759 16.4303C90.4595 15.9818 90.7487 15.4389 90.9435 14.8015C91.1382 14.1641 91.2356 13.4441 91.2356 12.6415C91.2356 11.8861 91.1176 11.2074 90.8815 10.6054C90.6454 10.0034 90.3031 9.4959 89.8546 9.08278C89.4061 8.66967 88.8602 8.35098 88.2169 8.12672C87.5736 7.90245 86.8448 7.79032 86.0303 7.79032C85.5818 7.79032 85.2631 7.80803 85.0743 7.84344C84.8854 7.87885 84.7497 7.92606 84.6671 7.98508C84.5018 8.11491 84.4192 8.39819 84.4192 8.83491V16.2887ZM104.123 15.2264C103.994 15.7693 103.893 16.3359 103.822 16.9261C103.752 17.5162 103.704 18.0297 103.681 18.4664C102.937 18.4428 102.158 18.428 101.344 18.4221C100.529 18.4162 99.6205 18.4133 98.6172 18.4133C97.6139 18.4133 96.652 18.4162 95.7313 18.4221C94.8107 18.428 93.9785 18.4428 93.2349 18.4664V18.0592L94.4743 17.9707C94.6749 17.947 94.8136 17.9028 94.8903 17.8379C94.9671 17.7729 95.0054 17.6107 95.0054 17.351V8.65786C95.0054 8.37458 94.973 8.17098 94.908 8.04704C94.8431 7.92311 94.728 7.85524 94.5628 7.84344L93.3057 7.7195V7.29458C93.7897 7.31819 94.4625 7.33295 95.3241 7.33885C96.1857 7.34475 97.1772 7.3477 98.2985 7.3477C99.4198 7.3477 100.355 7.34475 101.105 7.33885C101.854 7.33295 102.465 7.31819 102.937 7.29458C102.914 7.47164 102.899 7.67819 102.893 7.91426C102.887 8.15032 102.884 8.38934 102.884 8.63131C102.884 8.87328 102.887 9.11229 102.893 9.34836C102.899 9.58442 102.908 9.79688 102.92 9.98573H102.689C102.536 9.5254 102.397 9.16246 102.273 8.89688C102.149 8.63131 102.025 8.4277 101.901 8.28606C101.778 8.14442 101.645 8.05295 101.503 8.01164C101.361 7.97032 101.196 7.94377 101.007 7.93196H97.4487C97.248 7.93196 97.1123 7.98803 97.0415 8.10016C96.9707 8.21229 96.9353 8.40409 96.9353 8.67557V12.4821H100.175C100.411 12.4821 100.6 12.4467 100.742 12.3759C100.883 12.3051 100.984 12.1634 101.043 11.951L101.379 10.747H101.822C101.751 12.1516 101.751 13.568 101.822 14.9962H101.521L101.025 13.7215C100.907 13.4146 100.724 13.2228 100.476 13.1461C100.228 13.0693 99.8979 13.031 99.4848 13.031H96.9353V17.0854C96.9353 17.3451 96.9825 17.5251 97.0769 17.6254C97.1713 17.7257 97.372 17.7759 97.6789 17.7759H101.06C101.32 17.7759 101.562 17.7464 101.786 17.6874C102.011 17.6284 102.229 17.5074 102.441 17.3244C102.654 17.1415 102.869 16.8818 103.088 16.5454C103.306 16.209 103.533 15.7693 103.769 15.2264H104.123ZM114.568 15.2264C114.438 15.7693 114.338 16.3359 114.267 16.9261C114.196 17.5162 114.149 18.0297 114.125 18.4664C113.382 18.4428 112.603 18.428 111.788 18.4221C110.974 18.4162 110.065 18.4133 109.062 18.4133C108.059 18.4133 107.097 18.4162 106.176 18.4221C105.255 18.428 104.423 18.4428 103.68 18.4664V18.0592L104.919 17.9707C105.12 17.947 105.258 17.9028 105.335 17.8379C105.412 17.7729 105.45 17.6107 105.45 17.351V8.65786C105.45 8.37458 105.418 8.17098 105.353 8.04704C105.288 7.92311 105.173 7.85524 105.007 7.84344L103.75 7.7195V7.29458C104.234 7.31819 104.907 7.33295 105.769 7.33885C106.63 7.34475 107.622 7.3477 108.743 7.3477C109.864 7.3477 110.8 7.34475 111.549 7.33885C112.299 7.33295 112.91 7.31819 113.382 7.29458C113.358 7.47164 113.343 7.67819 113.338 7.91426C113.332 8.15032 113.329 8.38934 113.329 8.63131C113.329 8.87328 113.332 9.11229 113.338 9.34836C113.343 9.58442 113.352 9.79688 113.364 9.98573H113.134C112.981 9.5254 112.842 9.16246 112.718 8.89688C112.594 8.63131 112.47 8.4277 112.346 8.28606C112.222 8.14442 112.089 8.05295 111.948 8.01164C111.806 7.97032 111.641 7.94377 111.452 7.93196H107.893C107.693 7.93196 107.557 7.98803 107.486 8.10016C107.415 8.21229 107.38 8.40409 107.38 8.67557V12.4821H110.62C110.856 12.4821 111.045 12.4467 111.186 12.3759C111.328 12.3051 111.428 12.1634 111.487 11.951L111.824 10.747H112.266C112.196 12.1516 112.196 13.568 112.266 14.9962H111.965L111.47 13.7215C111.352 13.4146 111.169 13.2228 110.921 13.1461C110.673 13.0693 110.342 13.031 109.929 13.031H107.38V17.0854C107.38 17.3451 107.427 17.5251 107.521 17.6254C107.616 17.7257 107.817 17.7759 108.123 17.7759H111.505C111.765 17.7759 112.007 17.7464 112.231 17.6874C112.455 17.6284 112.674 17.5074 112.886 17.3244C113.099 17.1415 113.314 16.8818 113.532 16.5454C113.751 16.209 113.978 15.7693 114.214 15.2264H114.568ZM114.089 7.3477C114.667 7.3477 115.151 7.34475 115.54 7.33885C115.93 7.33295 116.225 7.32409 116.426 7.31229L118.975 7.17065C119.152 7.15885 119.285 7.15295 119.374 7.15295H119.595C120.799 7.15295 121.746 7.44212 122.437 8.02049C123.127 8.59885 123.472 9.39556 123.472 10.4106C123.472 10.9064 123.375 11.352 123.18 11.7474C122.985 12.1428 122.723 12.4792 122.392 12.7566C122.062 13.0339 121.687 13.2464 121.268 13.3939C120.849 13.5415 120.409 13.6152 119.949 13.6152C119.595 13.6152 119.282 13.5651 119.011 13.4647C118.739 13.3644 118.497 13.1962 118.285 12.9602L118.356 12.8362C118.509 12.8952 118.668 12.9336 118.834 12.9513C118.999 12.969 119.158 12.9779 119.312 12.9779C119.949 12.9779 120.477 12.7802 120.896 12.3847C121.315 11.9893 121.525 11.3608 121.525 10.4992C121.525 9.76737 121.324 9.1477 120.923 8.64016C120.521 8.13262 119.902 7.85524 119.064 7.80803C118.78 7.79622 118.527 7.79622 118.302 7.80803C118.066 7.80803 117.854 7.84934 117.665 7.93196V17.1916C117.665 17.3687 117.703 17.5074 117.78 17.6077C117.857 17.708 118.025 17.7877 118.285 17.8467L119.436 18.0769V18.4841C118.94 18.4605 118.485 18.4428 118.072 18.431C117.659 18.4192 117.305 18.4133 117.01 18.4133C116.691 18.4133 116.334 18.4162 115.939 18.4221C115.543 18.428 115.045 18.4428 114.443 18.4664V18.0592L115.434 17.8821C115.611 17.8467 115.729 17.7818 115.788 17.6874C115.847 17.5929 115.877 17.4336 115.877 17.2093V9.04737C115.877 8.59885 115.738 8.29787 115.461 8.14442C115.183 7.99098 114.726 7.87885 114.089 7.80803V7.3477ZM126.569 13.6329L125.206 17.351C125.147 17.5398 125.135 17.6785 125.171 17.767C125.206 17.8556 125.383 17.9116 125.702 17.9352L126.888 18.0238V18.4487C126.77 18.4369 126.531 18.428 126.171 18.4221C125.811 18.4162 125.324 18.4133 124.71 18.4133C124.097 18.4133 123.61 18.4162 123.25 18.4221C122.89 18.428 122.651 18.4369 122.533 18.4487V18.0238L123.648 17.9352C124.038 17.8998 124.309 17.6815 124.462 17.2802L128.535 6.72803H129.261L133.173 17.1562C133.256 17.3569 133.333 17.4926 133.403 17.5634C133.474 17.6343 133.604 17.6992 133.793 17.7582L134.767 18.0592V18.4664C134.542 18.4546 134.239 18.4428 133.855 18.431C133.471 18.4192 133.055 18.4133 132.607 18.4133H131.35C130.571 18.4133 129.916 18.431 129.384 18.4664V18.0592L130.535 17.8821C130.701 17.8585 130.83 17.832 130.925 17.8025C131.019 17.7729 131.081 17.7316 131.111 17.6785C131.14 17.6254 131.149 17.5605 131.137 17.4838C131.125 17.407 131.096 17.3097 131.049 17.1916L129.739 13.6329H126.569ZM129.491 12.9956L128.216 9.18901L126.817 12.9956H129.491ZM138.66 18.4841C138.436 18.4605 138.135 18.4428 137.758 18.431C137.38 18.4192 136.92 18.4133 136.377 18.4133C135.834 18.4133 135.356 18.4192 134.942 18.431C134.529 18.4428 134.211 18.4605 133.986 18.4841V18.0415L134.942 17.8821C135.108 17.8585 135.223 17.8084 135.288 17.7316C135.353 17.6549 135.385 17.5103 135.385 17.2979V8.37458C135.385 8.17393 135.359 8.04705 135.305 7.99393C135.252 7.94082 135.131 7.89655 134.942 7.86114L133.986 7.7018V7.29458C134.022 7.30639 134.119 7.31524 134.279 7.32114C134.438 7.32704 134.633 7.33295 134.863 7.33885C135.093 7.34475 135.335 7.3477 135.589 7.3477H136.855C137.067 7.3477 137.285 7.34475 137.51 7.33885C137.734 7.33295 137.949 7.32704 138.156 7.32114C138.362 7.31524 138.531 7.30639 138.66 7.29458V7.7018L137.74 7.86114C137.563 7.88475 137.445 7.92606 137.386 7.98508C137.327 8.04409 137.297 8.17393 137.297 8.37458V17.2979C137.297 17.4867 137.33 17.6195 137.395 17.6962C137.46 17.7729 137.575 17.8231 137.74 17.8467L138.66 18.0415V18.4841ZM146.752 18.4841C146.433 18.4605 146.055 18.4428 145.619 18.431C145.182 18.4192 144.68 18.4133 144.114 18.4133H143.237C142.936 18.4133 142.641 18.4162 142.352 18.4221C142.063 18.428 141.794 18.4369 141.546 18.4487C141.299 18.4605 141.098 18.4723 140.944 18.4841V18.0592L142.201 17.8467C142.39 17.8113 142.479 17.7523 142.467 17.6697C142.455 17.587 142.349 17.4572 142.148 17.2802L138.572 14.1641C138.3 13.9398 138.044 13.7362 137.802 13.5533C137.56 13.3703 137.339 13.208 137.138 13.0664C137.409 12.9366 137.722 12.7477 138.076 12.4998C138.43 12.252 138.749 11.9982 139.032 11.7385L141.989 9.06508C142.296 8.7818 142.511 8.58114 142.635 8.46311C142.759 8.34508 142.821 8.23295 142.821 8.12672C142.821 8.02049 142.739 7.95557 142.573 7.93196L141.422 7.75491V7.29458C141.753 7.32999 142.473 7.3477 143.582 7.3477C144.68 7.3477 145.4 7.32999 145.742 7.29458V7.75491C145.471 7.77852 145.22 7.82573 144.99 7.89655C144.76 7.96737 144.515 8.0618 144.255 8.17983C143.996 8.29786 143.709 8.45721 143.397 8.65786C143.084 8.85852 142.75 9.11819 142.396 9.43688L139.28 12.2874L144.114 16.5188C144.432 16.7903 144.695 17.0087 144.901 17.1739C145.108 17.3392 145.259 17.4572 145.353 17.528C145.459 17.6107 145.568 17.6844 145.681 17.7493C145.793 17.8143 145.908 17.8585 146.026 17.8821L146.752 18.0238V18.4841Z" fill="#99ABCE"/>
<path fill-rule="evenodd" clip-rule="evenodd" d="M71.7862 13.9016C72.6824 12.8525 73.3272 11.9563 73.7207 11.2131C74.1141 10.4699 74.3108 9.82514 74.3108 9.27869C74.3108 8.64481 73.8518 8.19672 72.9338 7.93443V7.54098L79.2289 7.11475V7.57377C78.7043 7.74864 78.2453 7.96175 77.8518 8.21312C77.4584 8.46448 77.0158 8.83606 76.524 9.32787C76.0321 9.81968 75.4584 10.4699 74.8026 11.2787C74.1469 12.0874 73.2944 13.1475 72.2453 14.459C73.1196 15.6612 74.0212 16.4863 74.9502 16.9344C75.8791 17.3825 76.6824 17.6066 77.36 17.6066C78.0813 17.6066 78.8354 17.2787 79.6223 16.623C79.6442 16.6011 79.6988 16.5902 79.7862 16.5902C79.8955 16.5464 79.9884 16.5519 80.0649 16.6066C80.1414 16.6612 80.1141 16.8634 79.983 17.2131C79.9392 17.4536 79.8245 17.7268 79.6387 18.0328C79.4529 18.3388 79.1906 18.6393 78.8518 18.9344C78.513 19.2295 78.0977 19.4754 77.6059 19.6721C77.1141 19.8689 76.5513 19.9672 75.9174 19.9672C75.0868 19.9672 74.207 19.7377 73.278 19.2787C72.3491 18.8197 71.2944 17.9672 70.1141 16.7213C69.5458 17.3115 68.9994 17.8142 68.4748 18.2295C67.9502 18.6448 67.4092 18.9836 66.8518 19.2459C66.2944 19.5082 65.7097 19.6995 65.0977 19.8197C64.4857 19.9399 63.819 20 63.0977 20C62.1578 20 61.3054 19.8579 60.5403 19.5738C59.7753 19.2896 59.125 18.8907 58.5895 18.377C58.054 17.8634 57.6387 17.2623 57.3436 16.5738C57.0485 15.8852 56.901 15.1257 56.901 14.2951C56.901 12.8743 57.3709 11.6831 58.3108 10.7213C59.2507 9.75956 60.7698 8.9399 62.8682 8.2623C62.3436 7.67213 61.9338 7.15847 61.6387 6.72131C61.3436 6.28415 61.1196 5.89618 60.9666 5.55738C60.8136 5.21858 60.7152 4.90164 60.6715 4.60656C60.6278 4.31147 60.6059 4.01093 60.6059 3.70492C60.6059 2.65573 61.0431 1.77596 61.9174 1.06557C62.7917 0.355188 63.9502 0 65.3928 0C66.7261 0 67.8026 0.327866 68.6223 0.983607C69.442 1.63935 69.8518 2.50273 69.8518 3.57377C69.8518 4.53552 69.5731 5.33333 69.0158 5.96721C68.4584 6.6011 67.6442 7.12568 66.5731 7.54098L71.7862 13.9016ZM65.983 6.98361C66.6387 6.63388 67.1032 6.21312 67.3764 5.72131C67.6496 5.22951 67.7862 4.6011 67.7862 3.83607C67.7862 2.8306 67.5513 2.06011 67.0813 1.52459C66.6114 0.989069 66.0376 0.710383 65.36 0.688525C64.748 0.688525 64.2453 0.852458 63.8518 1.18033C63.4584 1.5082 63.2617 1.95628 63.2617 2.52459C63.2617 2.8306 63.289 3.10382 63.3436 3.34426C63.3983 3.5847 63.5185 3.86339 63.7043 4.18033C63.8901 4.49727 64.1633 4.87431 64.524 5.31148C64.8846 5.74864 65.3709 6.30601 65.983 6.98361ZM63.36 8.85246C62.2015 9.35519 61.3655 10 60.8518 10.7869C60.3382 11.5738 60.0813 12.459 60.0813 13.4426C60.0813 14.1421 60.2125 14.765 60.4748 15.3115C60.7371 15.8579 61.0977 16.3224 61.5567 16.7049C62.0158 17.0874 62.5458 17.377 63.1469 17.5738C63.748 17.7705 64.3764 17.8689 65.0321 17.8689C65.9502 17.8689 66.7644 17.7322 67.4748 17.459C68.1852 17.1858 68.8901 16.7432 69.5895 16.1311L63.36 8.85246Z" fill="#99ABCE"/>
</svg>
